<svg data-v-423bf9ae="" xmlns="http://www.w3.org/2000/svg" viewBox="0 0 295 90" class="iconLeft"><!----><!----><!----><g data-v-423bf9ae="" id="94581c65-8dfe-4404-ba96-7b91d626c055" fill="black" transform="matrix(4.562737941741943,0,0,4.562737941741943,104.84410095214844,-0.9695838689804077)"><path d="M6.58 4.05L2.56 9.04L2.56 4.05L1.13 4.05L1.13 13.73L2.56 13.73L2.56 10.93L4.17 8.96L7.08 13.73L8.68 13.73L5.07 7.85L8.16 4.05ZM10.29 7.99C10.84 7.62 11.47 7.41 12.25 7.41C13.31 7.41 13.97 7.80 13.97 9.11L13.97 9.37C13.38 9.11 12.68 8.97 12.03 8.97C10.39 8.97 9.20 9.83 9.20 11.45C9.20 13.08 10.37 13.83 11.86 13.83C12.67 13.83 13.43 13.61 14.04 13.20L14.04 13.73L15.27 13.73L15.27 9.03C15.27 6.85 14.08 6.15 12.40 6.15C11.17 6.15 10.30 6.52 9.76 6.93ZM12.15 12.73C11.21 12.73 10.46 12.33 10.46 11.38C10.46 10.39 11.28 9.95 12.35 9.95C12.87 9.95 13.47 10.05 13.97 10.23L13.97 12.29C13.43 12.57 12.74 12.73 12.15 12.73ZM17.35 6.33L17.35 13.73L18.68 13.73L18.68 6.33ZM18.00 3.50C17.56 3.50 17.25 3.82 17.25 4.30C17.25 4.76 17.56 5.10 18.00 5.10C18.45 5.10 18.77 4.76 18.77 4.30C18.77 3.82 18.45 3.50 18.00 3.50ZM20.80 6.33L20.80 16.65L22.13 16.20L22.13 12.88C22.61 13.48 23.32 13.92 24.29 13.92C26.35 13.92 27.12 11.94 27.12 10.02C27.12 8.11 26.35 6.15 24.29 6.15C23.28 6.15 22.54 6.62 22.06 7.27L22.06 6.33ZM23.97 7.36C25.38 7.36 25.84 8.62 25.84 10.02C25.84 11.42 25.38 12.68 23.98 12.68C23.09 12.68 22.51 12.18 22.13 11.49L22.13 8.58C22.51 7.87 23.09 7.36 23.97 7.36ZM34.94 10.49C34.96 10.33 34.97 10.18 34.97 10.00C34.97 7.52 33.66 6.15 31.84 6.15C30.02 6.15 28.71 7.52 28.71 10.00C28.71 12.60 30.16 13.92 31.92 13.92C33.25 13.92 34.08 13.17 34.48 12.61L33.60 11.84C33.26 12.33 32.70 12.71 31.98 12.71C31.00 12.71 30.11 12.03 29.96 10.49ZM31.85 7.35C32.84 7.35 33.57 8.08 33.73 9.49L29.96 9.49C30.10 8.12 30.83 7.35 31.85 7.35ZM41.52 6.59C41.27 6.36 40.88 6.15 40.22 6.15C39.33 6.15 38.61 6.52 38.09 7.22L38.09 6.33L36.83 6.33L36.83 13.73L38.16 13.73L38.16 8.74C38.58 7.70 39.21 7.41 39.97 7.41C40.42 7.41 40.77 7.50 41.03 7.77Z"></path></g><!----><g data-v-423bf9ae="" id="c450e527-d27a-4e4a-a872-7d882dae8173" transform="matrix(2.8125,0,0,2.8125,0,0)" stroke="none" fill="black"><path d="M9.571 20.464l8.064 4.47 8.065-4.47v-8.939l-8.065-4.469-8.064 4.469z"></path><path d="M32 0H0v32h32l-5.054-5.172H5.054V5.172h21.892z"></path></g><!----></svg>